<svg xmlns="http://www.w3.org/2000/svg" width="60" height="60" fill="grey" id="notes"><path style="font-feature-settings:normal;font-variant-alternates:normal;font-variant-caps:normal;font-variant-east-asian:normal;font-variant-ligatures:normal;font-variant-numeric:normal;font-variant-position:normal;font-variation-settings:normal;inline-size:0;isolation:auto;mix-blend-mode:normal;shape-margin:0;shape-padding:0;text-decoration-color:#000;text-decoration-line:none;text-decoration-style:solid;text-indent:0;text-orientation:mixed;text-transform:none" d="M22 8C14.261 8 8 14.261 8 22v16c0 7.739 6.261 14 14 14h16c7.739 0 14-6.261 14-14V22c0-7.739-6.261-14-14-14H22zm0 2h16a11.94 11.94 0 0 1 11.949 11H10.051A11.94 11.94 0 0 1 22 10zM10 23h40v15c0 6.665-5.335 12-12 12H22c-6.665 0-12-5.335-12-12V23z" color="#000"></path><path style="font-feature-settings:normal;font-variant-alternates:normal;font-variant-caps:normal;font-variant-east-asian:normal;font-variant-ligatures:normal;font-variant-numeric:normal;font-variant-position:normal;font-variation-settings:normal;inline-size:0;isolation:auto;mix-blend-mode:normal;shape-margin:0;shape-padding:0;text-decoration-color:#000;text-decoration-line:none;text-decoration-style:solid;text-indent:0;text-orientation:mixed;text-transform:none" d="M15 29a1 1 0 0 0-1 1 1 1 0 0 0 1 1h30a1 1 0 0 0 1-1 1 1 0 0 0-1-1H15zm0 8a1 1 0 0 0-1 1 1 1 0 0 0 1 1h30a1 1 0 0 0 1-1 1 1 0 0 0-1-1H15z" color="#000"></path></svg>